<svg width="190" height="85" viewBox="0 0 190 85" fill="none" xmlns="http://www.w3.org/2000/svg">
<g filter="url(#filter0_f_36_908)">
<path d="M153.401 76.3219C153.401 66.6433 161.414 13.8391 141.567 5.94149C118.639 -3.18201 109.764 28.7508 84.6172 39.1768C66.8666 50.2558 52.0745 46.9969 35.8031 54.8169C19.5317 62.6369 13.6149 67.8502 4 76.3219H86.836H153.401Z" fill="url(#paint0_linear_36_908)" fill-opacity="0.3"/>
</g>
<g filter="url(#filter1_d_36_908)">
<path d="M176.538 76.3219C176.538 71.4972 186.753 41.3751 165.565 35.7082C153.676 32.5283 151.743 49.8733 139.197 55.0706C130.341 60.5933 121.889 60.6173 113.771 64.5155C105.653 68.4137 104.354 71.127 102 76.3219H143.328H176.538Z" fill="#0ACF83"/>
</g>
<defs>
<filter id="filter0_f_36_908" x="0" y="0.321899" width="159" height="80" filterUnits="userSpaceOnUse" color-interpolation-filters="sRGB">
<feFlood flood-opacity="0" result="BackgroundImageFix"/>
<feBlend mode="normal" in="SourceGraphic" in2="BackgroundImageFix" result="shape"/>
<feGaussianBlur stdDeviation="2" result="effect1_foregroundBlur_36_908"/>
</filter>
<filter id="filter1_d_36_908" x="98" y="35.3219" width="85" height="49" filterUnits="userSpaceOnUse" color-interpolation-filters="sRGB">
<feFlood flood-opacity="0" result="BackgroundImageFix"/>
<feColorMatrix in="SourceAlpha" type="matrix" values="0 0 0 0 0 0 0 0 0 0 0 0 0 0 0 0 0 0 127 0" result="hardAlpha"/>
<feOffset dy="4"/>
<feGaussianBlur stdDeviation="2"/>
<feComposite in2="hardAlpha" operator="out"/>
<feColorMatrix type="matrix" values="0 0 0 0 0 0 0 0 0 0 0 0 0 0 0 0 0 0 0.25 0"/>
<feBlend mode="normal" in2="BackgroundImageFix" result="effect1_dropShadow_36_908"/>
<feBlend mode="normal" in="SourceGraphic" in2="effect1_dropShadow_36_908" result="shape"/>
</filter>
<linearGradient id="paint0_linear_36_908" x1="79" y1="73.3219" x2="79" y2="4.3219" gradientUnits="userSpaceOnUse">
<stop stop-color="#0ACF83"/>
<stop offset="1" stop-color="#0ACF83" stop-opacity="0"/>
</linearGradient>
</defs>
</svg>
